{"title":"The.Big.Year.2011.DVDRip.XviD.Ac3-Feel-Free","uid":6967551,"size":1404865256,"categoryP":"video","categoryS":"movies","magnet":"?xt=urn:btih:87b733a44487096fa24fc77bb65d1b272b542a66&amp;dn=The.Big.Year.2011.DVDRip.XviD.Ac3-Feel-Free&amp;tr=udp%3A%2F%2Ftracker.openbittorrent.com%3A80&amp;tr=udp%3A%2F%2Fopen.demonii.com%3A1337&amp;tr=udp%3A%2F%2Ftracker.coppersurfer.tk%3A6969&amp;tr=udp%3A%2F%2Fexodus.desync.com%3A6969","seeders":0,"leechers":1,"uploader":".BONE.","files":8,"time":1326933628,"description":"Genre:Comedy\nLanguage:English\n &lt;a href=&quot;\nhttp://www.imdb.com/title/tt1053810/&quot; rel=&quot;nofollow&quot; target=&quot;_NEW&quot;&gt;\nhttp://www.imdb.com/title/tt1053810/&lt;/a&gt;\n\nSource:DVD Thanks!\n\nFormat : AVI\nFormat/Info : Audio Video Interleave\nFile size : 1.31 GiB\nDuration : 1h 40mn\nOverall bit rate : 1 871 Kbps\n\nVideo\nID : 0\nFormat : MPEG-4 Visual\nFormat profile : Advanced Simple@L5\nFormat settings, BVOP : 1\nFormat settings, QPel : No\nFormat settings, GMC : No warppoints\nFormat settings, Matrix : Default (H.263)\nCodec ID : XVID\nCodec ID/Hint : XviD\nDuration : 1h 40mn\nBit rate : 1 414 Kbps\nWidth : 640 pixels\nHeight : 272 pixels\nDisplay aspect ratio : 2.35:1\nFrame rate : 23.976 fps\nColor space : YUV\nChroma subsampling : 4:2:0\nBit depth : 8 bits\nScan type : Progressive\nCompression mode : Lossy\nBits/(Pixel*Frame) : 0.339\nStream size : 1 012 MiB (76%)\nWriting library : XviD 1.2.1 (UTC 2008-12-04)\n\nAudio\nID : 1\nFormat : AC-3\nFormat/Info : Audio Coding 3\nMode extension : CM (complete main)\nCodec ID : 2000\nDuration : 1h 40mn\nBit rate mode : Constant\nBit rate : 448 Kbps\nChannel(s) : 6 channels\nChannel positions : Front: L C R, Side: L R, LFE\nSampling rate : 48.0 KHz\nBit depth : 16 bits\nCompression mode : Lossy\nStream size : 321 MiB (24%)\nAlignment : Aligned on interleaves\nInterleave, duration : 42 ms (1.00 video frame)\nInterleave, preload duration : 512 ms\n\n\nPlot:\nThree avid bird watchers compete to spot the rarest birds in North America at a prestigious annual event.\n","torrent":{"xt":"urn:btih:87b733a44487096fa24fc77bb65d1b272b542a66","amp;dn":"The.Big.Year.2011.DVDRip.XviD.Ac3-Feel-Free","amp;tr":["udp%3A%2F%2Ftracker.openbittorrent.com%3A80","udp%3A%2F%2Fopen.demonii.com%3A1337","udp%3A%2F%2Ftracker.coppersurfer.tk%3A6969","udp%3A%2F%2Fexodus.desync.com%3A6969"],"infoHash":"87b733a44487096fa24fc77bb65d1b272b542a66","infoHashBuffer":{"type":"Buffer","data":[135,183,51,164,68,135,9,111,162,79,199,123,182,93,27,39,43,84,42,102]},"announce":[],"urlList":[]}}